<svg xmlns="http://www.w3.org/2000/svg" viewBox="0 0 128 128"><path fill="#3178c6" d="M1.5 1.5h125v125H1.5z"/><path fill="#fff" d="M102.9 101.1c0 4.2-1.6 7.5-4.8 9.9-3.2 2.4-7.7 3.6-13.6 3.6-5.2 0-9.4-1-12.7-2.9l2.7-8.9c3.2 1.8 6.4 2.7 9.4 2.7 3.9 0 5.8-1.4 5.8-4.2 0-1.5-.7-2.7-2.1-3.6-1.4-.9-3.8-1.9-7.2-3-4.5-1.5-7.8-3.4-10.1-5.6-2.2-2.3-3.4-5.3-3.4-9.1 0-4 1.5-7.3 4.5-9.8 3-2.5 7.2-3.8 12.5-3.8 4.7 0 8.7.8 11.9 2.5l-3 8.4c-2.8-1.4-5.6-2.1-8.5-2.1-3.4 0-5.1 1.2-5.1 3.5 0 1.3.6 2.3 1.8 3.1 1.2.8 3.5 1.7 6.9 2.9 4.6 1.6 8 3.5 10.3 5.8 2.3 2.3 3.5 5.4 3.5 9.3zM46.2 46.1H69v8.4H58.8v58.6H47.4V54.5h-10.2v-8.4h9z"/></svg>
